<?xml version="1.0" standalone="no"?>
<!DOCTYPE svg PUBLIC "-//W3C//DTD SVG 20010904//EN"
 "http://www.w3.org/TR/2001/REC-SVG-20010904/DTD/svg10.dtd">
<svg version="1.0" xmlns="http://www.w3.org/2000/svg"
 width="400.000000pt" height="100.000000pt" viewBox="0 0 400.000000 100.000000"
 preserveAspectRatio="xMidYMid meet">

<g transform="translate(0.000000,100.000000) scale(0.100000,-0.100000)"
fill="#000000" stroke="none">
<path d="M1690 823 c-277 -289 -284 -296 -320 -304 -21 -4 10 -6 80 -6 63 0
90 2 60 4 -30 2 -59 8 -63 12 -5 5 17 36 48 70 l57 61 151 0 151 0 62 -67 63
-68 -27 -6 c-15 -4 38 -7 118 -7 98 0 135 3 116 8 -31 10 -88 60 -137 122
l-30 37 40 21 c22 11 47 20 54 20 8 0 96 -47 195 -105 120 -70 190 -105 209
-104 l28 1 -32 9 c-18 5 -105 52 -195 104 -89 52 -167 96 -173 98 -5 3 -8 7
-5 10 3 3 84 44 180 91 l175 84 -125 -1 -125 -1 98 -5 99 -6 -69 -34 c-37 -18
-135 -65 -217 -103 l-149 -70 -111 111 c-61 61 -114 111 -117 111 -3 0 -43
-39 -89 -87z m270 -118 l185 -185 -64 0 -63 0 -77 75 -77 75 -148 0 -148 0
102 110 c56 61 103 110 104 110 1 0 84 -83 186 -185z"/>
<path d="M412 324 c-29 -35 -47 -64 -40 -63 7 0 27 21 43 46 17 26 36 48 42
50 6 2 28 -19 49 -46 30 -39 45 -50 67 -51 28 0 28 1 -30 65 -32 35 -62 64
-68 64 -5 0 -34 -30 -63 -65z"/>
<path d="M675 325 c0 -58 2 -65 20 -65 15 0 16 3 7 12 -12 12 -17 98 -6 98 4
0 46 -25 94 -55 48 -30 90 -55 93 -55 3 0 7 29 9 65 2 43 -1 65 -8 65 -7 0 -9
-18 -6 -51 l5 -51 -82 51 c-44 28 -91 51 -103 51 -22 0 -23 -4 -23 -65z"/>
<path d="M1049 373 c-70 -83 -90 -113 -75 -113 9 0 16 6 16 13 0 6 16 30 34
52 l34 40 41 -45 c22 -25 40 -48 41 -52 0 -5 12 -8 26 -8 26 0 25 2 -28 62
-30 34 -59 63 -65 65 -5 2 -16 -4 -24 -14z"/>
<path d="M1385 325 c0 -63 1 -65 25 -65 24 0 25 2 25 65 0 63 -1 65 -25 65
-24 0 -25 -2 -25 -65z"/>
<path d="M1525 369 c-39 -24 -29 -24 26 1 25 11 35 19 24 19 -11 0 -33 -9 -50
-20z"/>
<path d="M1752 325 c-29 -36 -47 -65 -40 -64 7 0 27 21 43 46 17 26 36 48 42
50 6 2 28 -19 49 -46 31 -39 45 -50 68 -51 29 0 28 1 -30 63 -32 34 -63 63
-69 65 -5 1 -34 -27 -63 -63z"/>
<path d="M2025 325 c0 -63 1 -65 25 -65 23 0 25 4 23 37 -1 21 -2 50 -2 66 -1
21 -6 27 -23 27 -22 0 -23 -4 -23 -65z"/>
<path d="M2153 379 c27 -16 20 -39 -13 -45 -16 -4 -30 -9 -30 -13 0 -13 88
-61 111 -61 20 0 16 5 -25 32 l-49 32 32 8 c54 14 37 59 -22 58 -20 -1 -20 -2
-4 -11z"/>
<path d="M2324 371 c-18 -11 -34 -25 -37 -33 -7 -22 13 -49 48 -64 50 -20 65
-17 28 6 -23 14 -33 27 -33 45 0 18 10 31 33 45 25 16 28 20 12 20 -11 0 -34
-9 -51 -19z"/>
<path d="M2495 380 c53 -21 57 -77 7 -105 l-27 -16 30 6 c79 16 101 70 43 105
-18 11 -42 20 -53 19 -20 0 -20 0 0 -9z"/>
<path d="M2665 325 c0 -61 1 -65 23 -65 21 0 22 4 22 65 0 61 -1 65 -22 65
-22 0 -23 -4 -23 -65z"/>
<path d="M2925 325 c0 -63 1 -65 25 -65 24 0 25 2 25 65 0 63 -1 65 -25 65
-24 0 -25 -2 -25 -65z"/>
<path d="M3088 340 c3 -32 0 -55 -8 -65 -10 -12 -9 -15 6 -15 17 0 19 7 16 55
-2 30 -1 55 1 55 3 0 45 -25 94 -55 86 -54 88 -55 95 -33 3 13 6 42 7 66 1 31
-3 42 -14 42 -12 0 -13 -4 -5 -19 13 -25 13 -71 0 -71 -5 0 -42 20 -82 45 -40
25 -82 45 -94 45 -19 0 -21 -4 -16 -50z"/>
<path d="M3400 325 c0 -61 1 -65 23 -65 21 0 22 4 22 65 0 61 -1 65 -22 65
-22 0 -23 -4 -23 -65z"/>
<path d="M3551 387 c2 -1 12 -9 22 -16 14 -12 17 -11 17 3 0 10 -8 16 -22 16
-12 0 -19 -1 -17 -3z"/>
<path d="M1468 342 c-10 -2 -18 -7 -18 -10 0 -13 125 -73 150 -72 20 1 12 7
-35 31 -33 17 -64 36 -70 43 -5 6 -18 10 -27 8z"/>
<path d="M3521 336 c-9 -10 -8 -15 4 -20 10 -4 15 1 15 14 0 24 -4 25 -19 6z"/>
<path d="M2821 280 l-23 -20 26 0 c14 0 26 2 26 4 0 2 3 11 6 20 8 21 -6 20
-35 -4z"/>
<path d="M3585 290 c-4 -6 -17 -15 -29 -20 -20 -8 -19 -9 5 -9 16 -1 29 6 33
15 8 20 1 30 -9 14z"/>
<path d="M605 150 c-10 -11 -13 -20 -7 -20 6 0 15 8 21 17 9 16 11 16 32 -2
l22 -20 -14 23 c-17 27 -31 28 -54 2z"/>
<path d="M732 150 c0 -14 2 -19 5 -12 2 6 2 18 0 25 -3 6 -5 1 -5 -13z"/>
<path d="M773 156 c-6 -8 -9 -17 -6 -20 12 -11 19 -6 20 14 2 23 2 23 -14 6z"/>
<path d="M845 160 c-7 -11 2 -30 13 -30 4 0 8 9 8 20 0 21 -11 26 -21 10z"/>
<path d="M925 158 c4 -11 0 -18 -12 -21 -15 -4 -16 -5 -1 -6 22 -1 33 18 19
32 -9 9 -11 8 -6 -5z"/>
<path d="M997 150 c3 -11 7 -20 9 -20 2 0 4 9 4 20 0 11 -4 20 -9 20 -5 0 -7
-9 -4 -20z"/>
<path d="M1060 150 c0 -11 2 -20 4 -20 2 0 6 9 9 20 3 11 1 20 -4 20 -5 0 -9
-9 -9 -20z"/>
<path d="M1130 150 c0 -11 5 -20 10 -20 6 0 10 9 10 20 0 11 -4 20 -10 20 -5
0 -10 -9 -10 -20z"/>
<path d="M1232 150 c0 -14 2 -19 5 -12 2 6 2 18 0 25 -3 6 -5 1 -5 -13z"/>
<path d="M1320 151 c0 -25 6 -27 13 -6 4 8 2 17 -3 20 -6 4 -10 -3 -10 -14z"/>
<path d="M1460 150 c0 -11 4 -20 9 -20 6 0 9 9 8 20 -1 11 -5 20 -9 20 -4 0
-8 -9 -8 -20z"/>
<path d="M1550 156 c0 -8 5 -18 10 -21 6 -3 10 3 10 14 0 12 -4 21 -10 21 -5
0 -10 -6 -10 -14z"/>
<path d="M1622 150 c0 -14 2 -19 5 -12 2 6 2 18 0 25 -3 6 -5 1 -5 -13z"/>
<path d="M1690 149 c0 -11 4 -18 10 -14 5 3 7 12 3 20 -7 21 -13 19 -13 -6z"/>
<path d="M1750 162 c0 -7 -8 -12 -17 -12 -15 0 -16 -2 -3 -10 10 -6 17 -4 23
6 5 9 6 18 3 21 -3 4 -6 1 -6 -5z"/>
<path d="M1825 150 c-21 -23 -9 -27 15 -5 15 14 18 14 30 0 7 -8 17 -15 23
-15 5 0 2 9 -8 20 -10 11 -23 20 -30 20 -7 0 -20 -9 -30 -20z"/>
<path d="M2035 160 c3 -5 -1 -10 -7 -13 -7 -2 -9 -8 -5 -13 4 -5 12 -2 17 6 7
12 12 12 22 2 14 -14 38 -16 38 -2 0 5 -8 6 -17 3 -12 -5 -15 -2 -11 9 5 11 0
16 -18 16 -13 0 -21 -4 -19 -8z"/>
<path d="M2242 150 c0 -14 2 -19 5 -12 2 6 2 18 0 25 -3 6 -5 1 -5 -13z"/>
<path d="M2310 150 c0 -11 2 -20 4 -20 2 0 6 9 9 20 3 11 1 20 -4 20 -5 0 -9
-9 -9 -20z"/>
<path d="M2377 150 c-3 -11 -1 -20 4 -20 5 0 9 9 9 20 0 11 -2 20 -4 20 -2 0
-6 -9 -9 -20z"/>
<path d="M2470 150 c0 -11 4 -20 9 -20 6 0 9 9 8 20 -1 11 -5 20 -9 20 -4 0
-8 -9 -8 -20z"/>
<path d="M2572 150 c0 -14 2 -19 5 -12 2 6 2 18 0 25 -3 6 -5 1 -5 -13z"/>
<path d="M2692 150 c0 -14 2 -19 5 -12 2 6 2 18 0 25 -3 6 -5 1 -5 -13z"/>
<path d="M2733 156 c-6 -8 -9 -17 -6 -20 12 -11 19 -6 20 14 2 23 2 23 -14 6z"/>
<path d="M2812 150 c0 -14 2 -19 5 -12 2 6 2 18 0 25 -3 6 -5 1 -5 -13z"/>
<path d="M2875 160 c-8 -12 2 -30 17 -30 7 0 7 5 -1 14 -9 11 -9 15 1 19 9 4
9 6 1 6 -6 1 -15 -3 -18 -9z"/>
<path d="M2954 150 c0 -13 4 -16 10 -10 7 7 7 13 0 20 -6 6 -10 3 -10 -10z"/>
<path d="M3032 150 c0 -14 2 -19 5 -12 2 6 2 18 0 25 -3 6 -5 1 -5 -13z"/>
<path d="M3073 156 c-6 -8 -9 -17 -6 -20 12 -11 19 -6 20 14 2 23 2 23 -14 6z"/>
<path d="M3150 151 c0 -25 6 -27 13 -6 4 8 2 17 -3 20 -6 4 -10 -3 -10 -14z"/>
<path d="M3315 140 c3 -5 8 -10 11 -10 2 0 4 5 4 10 0 6 -5 10 -11 10 -5 0 -7
-4 -4 -10z"/>
</g>
</svg>
