<?xml version="1.0" standalone="no"?>
<!DOCTYPE svg PUBLIC "-//W3C//DTD SVG 20010904//EN"
 "http://www.w3.org/TR/2001/REC-SVG-20010904/DTD/svg10.dtd">
<svg version="1.0" xmlns="http://www.w3.org/2000/svg"
 width="333.000000pt" height="333.000000pt" viewBox="0 0 333.000000 333.000000"
 preserveAspectRatio="xMidYMid meet">

<g transform="translate(0.000000,333.000000) scale(0.100000,-0.100000)"
fill="#000000" stroke="none">
<path d="M1225 2743 c-14 -32 -32 -71 -40 -88 -7 -16 -53 -120 -100 -230 -170
-393 -247 -571 -275 -630 -15 -33 -40 -90 -55 -125 -38 -91 -270 -620 -311
-708 -19 -41 -34 -76 -34 -79 0 -2 -11 -28 -24 -56 -56 -125 -66 -147 -66
-156 0 -5 -12 -19 -26 -30 -21 -17 -41 -21 -96 -21 -63 0 -69 -2 -66 -20 3
-18 14 -19 293 -22 284 -3 290 -3 290 17 0 19 -8 20 -142 25 -97 3 -146 9
-155 18 -26 26 -5 136 47 247 15 32 41 90 119 270 8 17 34 75 58 130 l45 100
379 0 379 0 87 -195 c85 -192 109 -245 183 -405 21 -44 46 -99 56 -122 l18
-43 -68 0 c-46 0 -70 -4 -73 -13 -14 -36 -5 -37 364 -37 l359 0 -3 23 c-2 17
-10 23 -38 25 -19 1 -47 7 -61 13 -29 11 -46 45 -204 399 -91 205 -116 259
-171 378 -19 40 -34 75 -34 77 0 2 58 64 130 137 113 116 131 131 144 118 23
-25 693 -866 811 -1018 l109 -142 46 0 c25 0 62 -3 83 -6 35 -6 37 -5 37 20 0
24 -3 26 -47 26 -57 0 -97 22 -142 76 -17 22 -146 185 -286 364 -141 179 -262
332 -268 340 -48 59 -147 184 -172 216 -16 21 -50 63 -75 94 -25 30 -51 62
-58 71 -10 14 -1 27 65 95 392 399 856 881 861 895 5 12 -619 11 -637 0 -8 -5
-11 -16 -7 -26 6 -16 25 -17 265 -10 143 4 261 3 264 -2 6 -9 -21 -39 -272
-303 -426 -448 -852 -880 -867 -880 -6 0 -21 22 -33 50 -12 27 -42 94 -67 147
-26 54 -63 136 -84 183 -21 47 -57 126 -80 175 -23 50 -59 128 -80 175 -21 47
-52 115 -69 153 -17 37 -31 69 -31 72 0 2 -15 37 -34 77 -19 40 -46 101 -61
135 -41 93 -49 95 -80 26z m111 -251 c40 -89 84 -186 97 -214 14 -29 43 -93
65 -143 22 -49 59 -130 82 -180 23 -49 62 -135 87 -190 51 -114 135 -296 200
-434 64 -137 313 -697 313 -705 0 -12 -294 -6 -312 7 -17 13 -130 248 -286
592 -27 61 -59 131 -72 158 l-22 47 -389 0 c-214 0 -389 3 -389 6 0 3 23 58
51 123 54 124 56 128 118 264 23 49 41 91 41 94 0 3 9 24 20 47 10 23 49 111
85 196 64 148 90 209 121 275 7 17 27 62 43 100 46 108 55 125 65 122 5 -2 41
-76 82 -165z"/>
</g>
</svg>
