<?xml version="1.0" standalone="no"?>
<!DOCTYPE svg PUBLIC "-//W3C//DTD SVG 20010904//EN"
 "http://www.w3.org/TR/2001/REC-SVG-20010904/DTD/svg10.dtd">
<svg version="1.0" xmlns="http://www.w3.org/2000/svg"
 width="1024.000000pt" height="576.000000pt" viewBox="0 0 1024.000000 576.000000"
 preserveAspectRatio="xMidYMid meet">

<g transform="translate(0.000000,576.000000) scale(0.100000,-0.100000)"
fill="#000000" stroke="none">
<path d="M4543 5148 c-6 -7 -84 -182 -173 -388 -148 -343 -342 -785 -632
-1445 -61 -137 -113 -257 -116 -265 -3 -8 -16 -27 -30 -42 -23 -25 -32 -28
-94 -28 -65 0 -68 -1 -68 -24 l0 -23 290 -1 290 -2 0 25 0 25 -134 0 c-116 0
-137 2 -157 19 -23 18 -23 21 -12 84 7 44 47 147 121 314 60 136 120 272 132
301 l22 52 378 0 377 0 73 -162 c40 -90 117 -261 171 -380 55 -120 99 -220 99
-222 0 -3 -30 -6 -67 -8 -62 -3 -68 -5 -71 -26 l-3 -22 363 2 c355 3 363 3
363 23 0 17 -8 21 -52 25 -29 3 -60 13 -69 22 -9 9 -101 203 -204 431 l-187
415 133 133 c73 73 135 131 137 129 2 -3 120 -151 263 -329 142 -178 321 -403
397 -500 76 -97 167 -212 202 -257 l64 -81 62 -7 c103 -10 109 -9 109 19 0 23
-3 25 -52 25 -36 0 -61 6 -83 21 -31 21 -158 177 -424 519 -80 102 -225 285
-323 407 -98 122 -178 226 -178 231 0 5 12 19 26 33 84 77 904 930 904 940 0
9 -76 10 -317 6 -175 -4 -319 -7 -320 -7 -2 0 -3 -10 -3 -22 l0 -21 219 6
c212 7 315 2 309 -13 -6 -16 -538 -570 -838 -873 l-305 -309 -39 84 c-103 221
-232 504 -373 818 -85 190 -158 349 -162 353 -4 4 -13 2 -18 -5z m209 -563
c108 -236 279 -612 381 -835 270 -590 347 -763 343 -768 -2 -2 -70 -4 -150 -5
-133 -2 -147 0 -165 18 -18 18 -98 185 -307 640 l-69 150 -392 3 -392 2 34 78
c18 42 61 140 95 217 64 145 225 512 345 788 38 87 72 154 75 150 4 -4 95
-201 202 -438z"/>
<path d="M6153 2264 c-124 -25 -218 -98 -270 -209 -25 -54 -28 -70 -28 -170 0
-104 2 -114 33 -177 38 -77 92 -130 171 -167 50 -23 68 -26 166 -26 100 0 116
3 170 28 78 36 146 104 182 181 26 56 28 71 27 171 0 121 -12 159 -73 243 -77
104 -232 156 -378 126z m182 -35 c60 -31 90 -65 119 -129 92 -204 28 -478
-129 -551 -59 -27 -149 -25 -205 5 -214 113 -206 567 12 675 58 29 149 29 203
0z"/>
<path d="M1201 2249 c-6 -13 -62 -163 -125 -333 -64 -170 -123 -320 -131 -333
-9 -13 -30 -29 -48 -37 -31 -13 -28 -14 66 -17 53 -2 97 -2 97 1 0 3 -13 11
-30 17 -25 9 -30 17 -30 45 0 18 12 68 27 111 l26 77 132 0 132 0 37 -95 c47
-124 47 -133 -4 -141 -75 -12 -40 -19 95 -19 131 0 166 7 106 20 -33 7 -39 18
-221 470 -51 127 -99 236 -106 244 -11 12 -14 11 -23 -10z m43 -287 c31 -79
56 -145 56 -148 0 -2 -52 -4 -115 -4 -63 0 -115 3 -115 7 0 20 106 301 111
295 4 -4 32 -71 63 -150z"/>
<path d="M2725 2258 c-41 -119 -249 -665 -258 -679 -6 -10 -25 -24 -42 -31
l-30 -12 30 -3 c72 -6 155 -7 155 -1 0 3 -13 11 -30 17 -39 13 -39 39 -1 146
l28 80 131 3 130 3 36 -93 c50 -129 47 -148 -20 -148 -13 0 -24 -5 -24 -11 0
-6 7 -8 16 -5 9 3 70 6 137 6 l122 0 -35 18 c-29 14 -40 30 -66 97 -171 422
-254 620 -263 623 -6 2 -13 -2 -16 -10z m95 -439 c0 -5 -52 -9 -116 -9 -107 0
-116 1 -109 18 4 9 25 69 47 132 22 63 45 126 50 140 9 22 16 9 69 -124 32
-82 59 -153 59 -157z"/>
<path d="M4551 2048 c-181 -483 -179 -478 -220 -496 l-36 -17 30 -2 c72 -6
165 -8 165 -3 0 3 -15 12 -33 20 -27 13 -32 20 -31 47 1 18 14 67 29 108 l28
75 132 0 132 0 37 -96 c46 -122 46 -130 -1 -142 -31 -8 -15 -10 95 -13 126 -4
162 1 107 15 -14 4 -31 16 -40 29 -8 12 -73 166 -145 342 -140 340 -147 355
-158 355 -4 0 -45 -100 -91 -222z m119 -78 c29 -74 54 -141 57 -147 4 -10 -22
-13 -111 -13 -64 0 -116 3 -116 8 -1 22 104 302 110 295 4 -4 31 -69 60 -143z"/>
<path d="M1650 2252 c0 -4 15 -12 32 -17 55 -17 58 -31 58 -345 0 -315 -2
-325 -60 -346 -32 -11 -25 -12 75 -12 101 0 107 1 79 13 -59 26 -59 22 -62
339 l-3 291 65 -90 c227 -311 419 -565 427 -565 5 0 9 79 9 188 0 104 3 258 7
342 7 167 15 190 68 190 14 0 25 5 25 10 0 6 -43 10 -110 10 -67 0 -110 -4
-110 -10 0 -5 11 -10 24 -10 38 0 64 -41 71 -113 3 -34 5 -144 3 -245 l-3
-182 -142 192 c-78 106 -170 232 -205 280 l-63 88 -92 0 c-51 0 -93 -4 -93 -8z"/>
<path d="M3470 2250 c0 -5 9 -10 19 -10 10 0 29 -9 42 -19 l24 -19 0 -317 c0
-302 -1 -317 -19 -331 -11 -8 -30 -14 -43 -14 -13 0 -23 -5 -23 -11 0 -9 20
-10 68 -6 37 4 99 7 137 7 l70 1 -37 15 c-21 9 -38 24 -42 37 -3 12 -6 79 -6
148 0 109 2 128 18 142 10 10 23 17 28 17 5 0 79 -83 164 -185 l155 -184 93
-1 c55 0 92 4 92 10 0 6 -8 10 -18 10 -9 0 -33 11 -52 24 -39 26 -345 381
-345 399 0 23 248 254 288 268 20 7 37 17 37 21 0 4 -47 8 -105 8 -101 0 -137
-11 -76 -23 56 -11 47 -33 -51 -134 -51 -52 -124 -122 -161 -156 l-69 -61 4
161 c3 172 9 193 54 193 13 0 24 5 24 10 0 6 -52 10 -135 10 -83 0 -135 -4
-135 -10z"/>
<path d="M5120 2250 c8 -5 23 -10 32 -10 9 0 24 -10 32 -22 14 -19 16 -67 16
-328 0 -172 -4 -311 -10 -320 -5 -8 -24 -20 -42 -27 -29 -10 -19 -12 84 -12
64 -1 123 -4 132 -7 9 -3 16 -1 16 5 0 6 -15 14 -32 19 l-33 8 -8 150 c-4 82
-5 155 -2 162 3 8 18 12 41 10 36 -3 41 -9 157 -180 l121 -178 83 0 c87 0 105
9 51 25 -27 8 -53 38 -145 170 -62 88 -113 165 -113 171 0 6 15 14 32 18 49
10 103 50 123 91 26 56 17 142 -19 190 -52 67 -82 75 -321 75 -139 0 -205 -4
-195 -10z m359 -28 c50 -25 74 -63 79 -127 6 -71 -18 -137 -60 -167 -25 -17
-50 -23 -115 -26 l-83 -5 0 172 0 171 73 0 c49 0 83 -6 106 -18z"/>
<path d="M6740 2250 c0 -5 11 -10 24 -10 40 0 54 -24 61 -107 12 -118 0 -552
-14 -566 -7 -7 -26 -17 -44 -24 -36 -13 -31 -13 336 -14 l192 0 7 53 c9 76 9
168 0 168 -4 0 -20 -28 -35 -63 -30 -69 -66 -113 -104 -128 -13 -5 -71 -9
-129 -9 l-104 0 0 323 c0 351 2 367 56 367 13 0 24 5 24 10 0 6 -52 10 -135
10 -83 0 -135 -4 -135 -10z"/>
<path d="M7415 2250 c-3 -6 4 -10 17 -10 14 0 33 -6 44 -14 18 -14 19 -31 22
-298 4 -352 3 -361 -46 -381 -36 -15 -32 -15 103 -15 119 0 135 1 108 11 -59
22 -58 13 -61 340 -3 326 1 349 48 355 14 2 29 8 35 13 5 5 -45 9 -127 9 -81
0 -139 -4 -143 -10z"/>
<path d="M7805 2250 c3 -5 14 -10 24 -10 11 0 29 -9 42 -19 l24 -19 3 -280 c4
-327 0 -352 -56 -375 -37 -15 -36 -15 73 -16 108 0 109 0 73 15 -20 9 -40 23
-44 32 -12 26 -18 585 -6 578 5 -3 66 -83 136 -178 230 -316 317 -433 335
-451 17 -17 18 -8 24 215 4 128 7 283 7 343 0 122 12 155 56 155 13 0 24 5 24
10 0 6 -40 10 -99 10 -56 0 -103 -4 -106 -10 -3 -6 4 -10 17 -10 66 -1 79 -58
76 -333 l-3 -208 -193 263 c-106 145 -198 271 -206 281 -11 14 -30 17 -110 17
-62 0 -95 -4 -91 -10z"/>
<path d="M8630 2250 c0 -5 11 -10 24 -10 47 0 52 -17 60 -198 8 -199 -2 -468
-18 -481 -6 -4 -24 -13 -41 -19 -23 -8 34 -11 233 -13 144 -1 270 -3 279 -3
21 -1 28 25 37 132 5 49 4 82 -2 82 -5 0 -19 -26 -30 -58 -13 -34 -36 -72 -57
-92 l-36 -35 -130 -3 -129 -4 0 171 0 171 81 0 c44 0 89 -4 99 -10 20 -10 40
-59 40 -96 0 -13 5 -24 10 -24 6 0 10 53 10 140 0 136 -11 181 -24 99 -4 -23
-17 -51 -31 -65 -22 -21 -33 -24 -105 -24 l-80 0 0 165 0 165 111 0 c140 0
168 -12 204 -83 14 -28 25 -57 25 -64 0 -7 5 -13 10 -13 6 0 10 37 10 90 l0
90 -275 0 c-177 0 -275 -4 -275 -10z"/>
<path d="M1610 1047 c0 -2 -25 -64 -54 -136 -42 -99 -51 -131 -40 -131 8 0 22
16 30 35 14 34 15 35 74 35 59 0 61 -1 77 -35 9 -19 23 -35 30 -35 7 0 13 2
13 4 0 16 -110 261 -119 264 -6 2 -11 2 -11 -1z m39 -113 c11 -31 21 -58 21
-60 0 -2 -23 -4 -51 -4 -28 0 -49 4 -47 8 2 4 12 31 22 60 11 29 23 52 27 52
3 0 16 -25 28 -56z"/>
<path d="M1860 915 c0 -113 2 -135 15 -135 12 0 15 13 15 55 0 53 1 55 28 55
22 -1 32 -10 57 -53 17 -28 39 -53 49 -55 17 -4 17 -1 -4 34 -13 22 -28 47
-34 56 -8 13 -4 21 17 38 36 29 37 81 2 115 -20 21 -34 25 -85 25 l-60 0 0
-135z m128 93 c15 -13 16 -60 0 -76 -7 -7 -31 -12 -55 -12 l-43 0 0 48 c0 27
3 52 7 56 10 9 74 -2 91 -16z"/>
<path d="M2212 1025 c-96 -81 -49 -245 70 -245 24 0 50 5 58 10 10 6 20 4 31
-6 20 -18 39 0 21 18 -8 8 -6 20 4 41 21 40 21 105 0 144 -33 65 -129 84 -184
38z m136 -28 c38 -35 48 -108 19 -145 -8 -10 -13 -9 -28 4 -25 23 -46 8 -23
-17 22 -24 13 -33 -33 -33 -82 0 -125 115 -68 183 38 44 89 47 133 8z"/>
<path d="M2552 939 c3 -107 4 -112 31 -135 41 -35 99 -33 138 5 28 29 29 32
29 135 0 88 -3 106 -15 106 -12 0 -15 -18 -15 -104 0 -102 -1 -105 -27 -126
-32 -25 -69 -20 -95 12 -15 16 -18 39 -18 119 0 84 -2 99 -16 99 -14 0 -15
-15 -12 -111z"/>
<path d="M2910 915 c0 -83 4 -135 10 -135 6 0 10 52 10 135 0 83 -4 135 -10
135 -6 0 -10 -52 -10 -135z"/>
<path d="M3070 1041 c0 -6 17 -11 38 -13 l37 -3 3 -122 c1 -68 7 -123 12 -123
5 0 11 55 12 123 l3 122 38 3 c73 6 35 22 -53 22 -49 0 -90 -4 -90 -9z"/>
<path d="M3390 915 l0 -135 76 0 c56 0 75 3 72 13 -3 7 -28 13 -67 15 l-62 3
3 47 3 47 53 3 c69 4 67 22 -4 22 l-55 0 3 48 3 47 63 3 c88 4 78 22 -13 22
l-75 0 0 -135z"/>
<path d="M3670 1041 c0 -6 17 -11 38 -13 l37 -3 3 -122 c1 -68 7 -123 12 -123
5 0 11 55 12 123 l3 122 38 3 c73 6 35 22 -53 22 -49 0 -90 -4 -90 -9z"/>
<path d="M3980 960 c0 -137 25 -180 105 -180 27 0 44 8 66 29 28 29 29 32 29
135 0 64 -4 106 -10 106 -6 0 -10 -33 -10 -77 0 -105 -13 -148 -48 -162 -34
-14 -76 -2 -91 28 -6 11 -11 63 -11 115 0 79 -3 96 -15 96 -12 0 -15 -17 -15
-90z"/>
<path d="M4340 915 c0 -83 4 -135 10 -135 6 0 10 25 10 55 0 54 0 55 29 55 25
0 34 -8 61 -55 17 -30 38 -55 46 -55 19 0 18 3 -15 57 l-30 47 24 21 c31 29
39 61 25 94 -14 36 -48 51 -110 51 l-50 0 0 -135z m103 104 c67 -36 42 -99
-39 -99 l-44 0 0 55 c0 55 0 55 31 55 17 0 40 -5 52 -11z"/>
<path d="M4733 1033 c-4 -10 -26 -65 -51 -123 -24 -58 -46 -111 -49 -117 -3
-7 2 -13 11 -13 9 0 22 16 30 35 15 35 16 35 75 35 60 0 61 0 75 -35 8 -19 22
-35 31 -35 14 0 14 4 -1 38 -8 20 -34 81 -56 135 -41 97 -53 112 -65 80z m42
-95 c11 -29 21 -56 23 -60 2 -5 -19 -8 -47 -8 -28 0 -51 2 -51 4 0 13 44 116
49 116 3 0 15 -24 26 -52z"/>
<path d="M5213 1024 c-14 -22 -15 -31 -5 -56 10 -27 9 -34 -13 -60 -32 -37
-32 -72 0 -103 26 -27 89 -34 125 -15 14 7 25 7 39 -2 25 -15 38 -4 21 17 -10
12 -11 24 -1 54 13 46 14 51 2 51 -5 0 -14 -13 -21 -30 -7 -16 -14 -30 -16
-30 -2 0 -19 17 -38 37 l-34 38 24 22 c44 41 23 103 -36 103 -21 0 -35 -8 -47
-26z m77 -34 c0 -10 -7 -24 -16 -31 -14 -11 -18 -10 -30 6 -19 25 -18 42 3 54
21 11 43 -3 43 -29z m-5 -122 c36 -39 37 -42 20 -55 -56 -40 -135 28 -90 77
10 11 21 20 25 20 4 0 25 -19 45 -42z"/>
<path d="M5737 1043 c-4 -3 -7 -64 -7 -135 0 -107 2 -128 15 -128 13 0 15 22
15 135 0 123 -4 147 -23 128z"/>
<path d="M5910 915 c0 -117 2 -135 16 -135 14 0 15 14 12 105 -1 58 -1 105 2
105 3 0 38 -48 79 -105 41 -58 80 -105 88 -105 10 0 13 29 13 135 0 112 -3
135 -15 135 -11 0 -15 -21 -17 -106 l-3 -106 -75 106 c-41 58 -81 106 -87 106
-10 0 -13 -34 -13 -135z"/>
<path d="M6260 1040 c0 -5 16 -10 35 -10 l35 0 0 -125 c0 -103 3 -125 15 -125
12 0 15 23 17 123 l3 122 38 3 c73 6 35 22 -53 22 -53 0 -90 -4 -90 -10z"/>
<path d="M6580 915 l0 -135 75 0 c59 0 75 3 75 15 0 10 -16 15 -62 17 l-63 3
0 45 0 45 58 3 c31 2 57 7 57 12 0 5 -26 10 -57 12 -52 3 -58 5 -61 27 -2 12
-1 34 2 47 6 22 11 24 66 24 33 0 60 4 60 10 0 6 -32 10 -75 10 l-75 0 0 -135z"/>
<path d="M6880 915 c0 -83 4 -135 10 -135 6 0 10 25 10 56 l0 55 32 -3 c27 -3
37 -11 62 -55 17 -29 36 -53 43 -53 19 0 17 7 -17 62 -34 55 -35 58 -16 58 21
0 46 40 46 73 0 16 -10 38 -25 52 -20 21 -34 25 -85 25 l-60 0 0 -135z m127
89 c33 -45 3 -84 -63 -84 l-44 0 0 48 c0 27 3 52 8 56 12 13 86 -2 99 -20z"/>
<path d="M7190 915 c0 -83 4 -135 10 -135 6 0 10 52 10 135 0 83 -4 135 -10
135 -6 0 -10 -52 -10 -135z"/>
<path d="M7406 1029 c-103 -81 -53 -249 74 -249 127 0 177 168 74 249 -36 29
-112 29 -148 0z m147 -39 c50 -56 32 -147 -37 -175 -69 -29 -136 20 -136 99 0
103 106 149 173 76z"/>
<path d="M7750 915 c0 -113 2 -135 15 -135 12 0 15 13 15 55 0 53 1 55 28 55
23 0 33 -10 60 -55 18 -30 40 -55 48 -55 13 0 11 7 -7 38 -13 20 -27 45 -33
54 -8 13 -4 21 17 38 36 29 37 81 2 115 -20 21 -34 25 -85 25 l-60 0 0 -135z
m118 99 c24 -17 30 -62 10 -82 -7 -7 -31 -12 -55 -12 l-43 0 0 48 c0 27 3 52
7 55 12 12 58 7 81 -9z"/>
<path d="M8070 915 l0 -135 76 0 c56 0 75 3 72 13 -3 7 -28 13 -67 15 l-62 3
3 47 3 47 58 3 c31 2 57 7 57 12 0 5 -26 10 -57 12 l-58 3 0 45 0 45 63 3 c88
4 78 22 -13 22 l-75 0 0 -135z"/>
<path d="M8380 1030 c-24 -24 -26 -72 -4 -91 10 -8 40 -25 68 -39 55 -27 70
-56 41 -80 -20 -16 -82 -17 -98 -1 -15 15 -27 14 -27 -2 0 -19 43 -37 86 -37
34 0 84 35 84 59 0 36 -24 63 -77 88 -47 23 -59 33 -61 55 -4 37 35 57 73 40
30 -14 55 -15 55 -4 0 14 -48 32 -85 32 -22 0 -43 -8 -55 -20z"/>
</g>
</svg>
