<?xml version="1.0" standalone="no"?>
<!DOCTYPE svg PUBLIC "-//W3C//DTD SVG 20010904//EN"
 "http://www.w3.org/TR/2001/REC-SVG-20010904/DTD/svg10.dtd">
<svg version="1.0" xmlns="http://www.w3.org/2000/svg"
 width="400.000000pt" height="217.000000pt" viewBox="0 0 400.000000 217.000000"
 preserveAspectRatio="xMidYMid meet">

<g transform="translate(0.000000,217.000000) scale(0.100000,-0.100000)"
fill="#000000" stroke="none">
<path d="M1687 1783 c-183 -425 -279 -638 -290 -645 -7 -4 -22 -8 -34 -8 -13
0 -23 -3 -23 -7 0 -10 209 -15 223 -6 7 5 -15 10 -48 13 -56 5 -60 7 -63 32
-2 16 18 75 49 148 l53 121 150 -3 150 -3 63 -140 c35 -76 63 -143 63 -147 0
-4 -11 -8 -25 -8 -14 0 -25 -4 -25 -10 0 -6 53 -10 140 -10 80 0 140 4 140 9
0 5 -10 11 -22 13 -17 2 -37 35 -99 170 l-76 166 53 53 c29 29 55 51 57 48 2
-2 75 -94 163 -205 88 -110 167 -209 175 -220 15 -22 75 -39 84 -24 3 5 -7 10
-22 12 -23 2 -61 44 -211 232 l-183 228 181 184 c99 101 180 187 180 191 0 4
-55 6 -122 3 l-123 -5 103 -3 c56 -1 102 -6 102 -10 0 -4 -99 -108 -219 -232
-143 -147 -222 -222 -228 -215 -6 6 -57 114 -114 242 -57 128 -107 232 -110
233 -4 0 -45 -89 -92 -197z m186 -58 c47 -104 126 -279 176 -389 50 -109 91
-200 91 -202 0 -11 -119 -3 -127 9 -6 6 -40 78 -78 160 l-68 147 -153 0 -153
0 40 88 c22 48 70 156 106 240 36 84 69 150 73 145 4 -4 45 -93 93 -198z"/>
<path d="M1782 783 c-16 -43 -39 -106 -52 -140 -12 -35 -27 -63 -31 -63 -5 0
-9 -3 -9 -7 0 -5 11 -8 24 -8 21 0 24 4 20 25 -2 14 1 36 9 50 11 21 20 25 61
26 46 1 49 -1 63 -34 8 -19 13 -42 10 -51 -3 -12 4 -16 30 -16 18 0 31 4 29
10 -3 6 -30 70 -61 144 -30 74 -57 136 -59 138 -2 2 -17 -31 -34 -74z m45 -48
l21 -55 -45 0 c-35 0 -44 3 -40 14 3 8 11 32 18 55 7 23 15 41 18 41 3 0 16
-25 28 -55z"/>
<path d="M2384 850 c-116 -36 -131 -219 -24 -275 39 -20 108 -19 149 3 91 49
95 200 7 257 -31 21 -91 27 -132 15z m95 -15 c32 -16 61 -77 61 -128 -1 -42
-33 -113 -58 -126 -12 -6 -36 -11 -54 -11 -78 0 -121 106 -83 205 25 67 77 90
134 60z"/>
<path d="M460 825 c-6 -15 -29 -76 -51 -134 -22 -58 -44 -107 -49 -109 -20 -7
-9 -17 19 -18 25 -1 28 2 19 15 -7 12 -6 27 4 50 13 31 18 35 61 37 47 3 49 3
63 -33 9 -20 14 -43 11 -52 -3 -12 4 -16 34 -16 35 -1 36 0 24 20 -8 11 -35
72 -60 135 -26 63 -51 119 -56 124 -5 5 -13 -2 -19 -19z m31 -102 l18 -43 -45
0 c-50 0 -50 0 -16 79 10 24 17 31 20 21 3 -8 13 -34 23 -57z"/>
<path d="M663 839 c15 -9 17 -26 17 -129 0 -68 -4 -121 -10 -125 -19 -12 -10
-22 15 -17 21 3 23 7 14 23 -5 10 -8 65 -7 120 l3 102 95 -129 95 -129 3 135
c2 112 5 137 19 148 14 10 10 12 -28 11 -24 -1 -36 -3 -27 -6 24 -6 29 -33 26
-128 l-3 -80 -79 108 c-75 102 -80 107 -115 107 -29 -1 -33 -3 -18 -11z"/>
<path d="M1020 733 c-23 -65 -50 -130 -60 -144 l-18 -26 28 1 c20 1 25 4 19
12 -6 8 -4 26 6 51 15 39 17 40 63 39 43 -1 48 -4 64 -36 9 -19 15 -40 13 -46
-2 -7 10 -14 30 -16 23 -3 31 0 26 7 -4 5 -32 70 -61 143 -28 72 -55 132 -60
132 -4 0 -26 -53 -50 -117z m54 24 c32 -77 32 -77 -17 -77 l-45 0 21 55 c11
30 21 55 23 55 2 0 10 -15 18 -33z"/>
<path d="M1373 839 c15 -9 17 -26 17 -134 0 -105 -3 -125 -17 -133 -12 -7 -4
-9 29 -8 31 1 43 4 37 12 -4 5 -8 65 -8 132 0 104 2 123 17 131 13 8 3 10 -38
10 -42 0 -51 -2 -37 -10z"/>
<path d="M1540 840 c12 -8 5 -20 -42 -66 l-56 -57 66 -79 c56 -66 72 -78 97
-78 l30 0 -58 63 c-33 34 -67 74 -78 88 l-19 26 59 57 60 56 -37 0 c-27 0 -33
-3 -22 -10z"/>
<path d="M2018 838 c15 -15 17 -249 3 -263 -6 -6 6 -10 34 -10 29 0 39 2 30 8
-11 6 -15 25 -15 67 0 83 21 80 83 -10 43 -63 51 -70 80 -69 17 0 27 3 20 5
-13 6 -107 134 -101 138 1 1 15 10 31 19 22 14 27 25 27 57 0 49 -27 71 -85
69 -33 -2 -35 -3 -10 -6 37 -5 55 -27 55 -68 0 -40 -27 -65 -69 -65 l-33 0 4
70 3 70 -34 0 c-27 0 -32 -3 -23 -12z"/>
<path d="M2654 834 c22 -21 23 -220 2 -250 -14 -20 -13 -20 85 -21 55 0 101 2
103 6 2 3 6 24 10 46 5 34 4 37 -7 21 -31 -49 -56 -66 -97 -66 l-40 0 0 134
c0 98 3 136 13 139 6 3 -10 6 -36 6 -44 1 -47 0 -33 -15z"/>
<path d="M2913 839 c15 -9 17 -26 17 -134 0 -90 -3 -125 -12 -128 -7 -2 6 -6
30 -8 23 -3 42 -1 42 3 0 5 -4 8 -10 8 -6 0 -10 50 -10 129 0 115 2 130 18
134 9 3 -8 5 -38 6 -42 0 -51 -2 -37 -10z"/>
<path d="M3061 843 c23 -6 29 -33 29 -143 0 -67 -4 -102 -14 -116 -14 -19 -13
-20 17 -16 18 3 26 7 20 9 -10 3 -13 37 -13 121 l0 116 94 -127 93 -127 7 61
c3 34 6 97 6 140 0 52 4 79 13 82 6 3 -6 6 -27 6 -34 1 -37 -1 -23 -12 13 -9
19 -34 24 -105 3 -51 2 -92 -3 -92 -5 1 -43 48 -84 105 -74 104 -75 105 -115
104 -22 -1 -33 -3 -24 -6z"/>
<path d="M3388 841 c10 -6 12 -39 10 -139 l-3 -131 50 -6 c49 -6 131 -3 139 6
2 2 6 22 10 44 l6 40 -20 -37 c-21 -38 -58 -54 -111 -46 -24 3 -24 4 -26 136
l-3 132 55 0 c52 0 57 -2 75 -32 l20 -33 0 38 0 37 -107 0 c-61 0 -102 -4 -95
-9z"/>
<path d="M3530 745 c0 -9 -7 -18 -15 -22 -14 -5 -14 -8 -2 -22 8 -9 17 -23 20
-31 3 -8 6 9 6 38 1 28 -1 52 -4 52 -3 0 -5 -7 -5 -15z"/>
<path d="M612 336 c-22 -50 -30 -85 -11 -53 13 22 55 22 63 1 4 -9 9 -15 12
-12 2 3 -6 30 -19 59 l-24 54 -21 -49z m38 -18 c0 -5 -7 -8 -15 -8 -15 0 -20
21 -8 33 7 7 23 -11 23 -25z"/>
<path d="M731 323 c1 -32 4 -46 6 -30 2 15 8 27 13 27 5 0 16 -12 24 -27 10
-19 15 -23 16 -11 0 9 -4 20 -10 23 -6 4 -5 13 2 24 16 26 3 51 -27 51 -24 0
-25 -2 -24 -57z m47 24 c2 -12 -3 -17 -17 -17 -15 0 -21 6 -21 21 0 25 33 22
38 -4z"/>
<path d="M856 358 c-20 -28 -20 -39 -2 -63 8 -12 27 -20 47 -20 33 -1 34 0 37
38 1 21 -3 45 -9 53 -17 21 -56 17 -73 -8z m62 0 c18 -18 16 -62 -3 -54 -8 3
-14 2 -14 -2 3 -19 -3 -22 -21 -12 -22 12 -27 49 -8 68 15 15 31 15 46 0z"/>
<path d="M999 346 c-7 -49 19 -87 48 -70 13 8 18 24 19 55 l1 44 -4 -42 c-7
-71 -50 -66 -55 7 l-3 45 -6 -39z"/>
<path d="M1130 331 c0 -28 5 -51 10 -51 6 0 10 20 10 44 0 25 -4 48 -10 51 -6
4 -10 -13 -10 -44z"/>
<path d="M1212 373 c13 -3 18 -18 21 -56 l3 -52 2 52 c2 40 6 53 20 56 9 3 -1
5 -23 5 -22 0 -32 -2 -23 -5z"/>
<path d="M1322 328 c3 -49 5 -53 31 -56 15 -2 27 1 27 7 0 6 -11 11 -25 11
-32 0 -34 30 -2 31 l22 0 -22 9 c-32 13 -29 38 5 43 25 4 24 4 -6 6 l-33 1 3
-52z"/>
<path d="M1448 373 c7 -3 12 -23 12 -49 0 -24 4 -44 8 -44 5 0 8 18 8 41 -1
27 4 44 14 49 11 7 5 9 -20 9 -19 0 -29 -3 -22 -6z"/>
<path d="M1559 346 c-7 -49 19 -87 48 -70 13 8 18 24 19 55 l1 44 -4 -42 c-7
-71 -50 -66 -55 7 l-3 45 -6 -39z"/>
<path d="M1691 328 c0 -46 2 -50 10 -28 l10 25 25 -30 c25 -31 32 -28 14 5 -7
13 -7 21 0 25 16 10 12 42 -6 49 -44 17 -54 8 -53 -46z m54 22 c0 -8 -10 -16
-22 -18 -22 -3 -32 16 -16 32 12 11 38 2 38 -14z"/>
<path d="M1832 332 c-23 -53 -29 -80 -11 -49 5 9 19 17 31 17 11 0 27 -8 35
-17 13 -16 13 -16 7 7 -3 14 -14 40 -24 59 l-17 33 -21 -50z m38 -14 c0 -5 -7
-8 -15 -8 -17 0 -18 2 -9 25 5 13 8 14 15 3 5 -7 9 -16 9 -20z"/>
<path d="M2035 370 c-3 -5 -4 -14 0 -20 3 -5 0 -18 -7 -29 -10 -17 -10 -23 3
-36 20 -21 65 -10 72 16 7 25 -1 24 -21 -2 -16 -19 -52 -19 -52 1 0 17 21 21
38 8 15 -12 16 -11 3 5 -11 13 -11 20 -1 32 6 8 9 19 5 25 -8 13 -32 13 -40 0z
m29 -21 c-3 -5 -10 -7 -15 -3 -5 3 -7 10 -3 15 3 5 10 7 15 3 5 -3 7 -10 3
-15z"/>
<path d="M2243 325 c0 -33 2 -45 4 -27 2 18 2 45 0 60 -2 15 -4 0 -4 -33z"/>
<path d="M2312 323 c1 -58 1 -58 7 -14 l6 45 29 -42 c16 -23 30 -42 32 -42 2
0 3 26 2 58 l-1 57 -6 -44 -6 -45 -28 42 c-15 23 -29 42 -32 42 -3 0 -4 -26
-3 -57z"/>
<path d="M2458 373 c7 -3 12 -23 12 -49 0 -24 4 -44 9 -44 5 0 7 17 5 37 -4
28 0 41 13 50 15 11 13 13 -18 12 -19 0 -28 -3 -21 -6z"/>
<path d="M2570 325 c0 -55 0 -55 31 -55 17 0 28 4 24 10 -3 6 -15 10 -26 10
-27 0 -24 28 4 33 l22 4 -22 2 c-35 2 -31 39 5 44 25 4 25 4 -5 6 l-33 1 0
-55z"/>
<path d="M2691 328 c1 -29 4 -43 6 -30 6 30 19 28 37 -5 10 -19 15 -23 16 -11
0 9 -4 20 -10 23 -6 4 -5 13 2 24 16 26 3 51 -27 51 -24 0 -25 -3 -24 -52z
m47 19 c2 -12 -3 -17 -17 -17 -15 0 -21 6 -21 21 0 25 33 22 38 -4z"/>
<path d="M2813 325 c0 -33 2 -45 4 -27 2 18 2 45 0 60 -2 15 -4 0 -4 -33z"/>
<path d="M2887 362 c-10 -10 -17 -28 -17 -40 0 -21 34 -52 57 -52 35 0 58 71
31 98 -18 18 -53 15 -71 -6z m61 -4 c19 -19 14 -56 -9 -69 -18 -9 -25 -7 -42
10 -18 17 -19 24 -9 46 12 27 40 33 60 13z"/>
<path d="M3031 323 c1 -32 4 -46 6 -30 2 15 7 27 11 27 3 0 17 -12 30 -27 13
-16 20 -21 16 -13 -5 8 -8 33 -9 55 0 36 -3 40 -27 43 -28 3 -28 3 -27 -55z
m47 24 c2 -12 -3 -17 -17 -17 -15 0 -21 6 -21 21 0 25 33 22 38 -4z"/>
<path d="M3152 328 c3 -49 5 -53 31 -56 15 -2 27 1 27 7 0 6 -11 11 -25 11
-32 0 -34 30 -2 31 l22 0 -22 9 c-32 13 -29 38 5 43 25 4 24 4 -6 6 l-33 1 3
-52z"/>
<path d="M3271 366 c-13 -15 -10 -20 34 -51 17 -12 18 -16 6 -24 -8 -5 -21 -7
-30 -4 -12 5 -13 3 -5 -7 17 -17 54 -3 54 21 0 12 -10 23 -25 29 -35 13 -34
44 1 36 17 -5 23 -3 19 4 -9 15 -41 12 -54 -4z"/>
</g>
</svg>
