<?xml version="1.0" standalone="no"?>
<!DOCTYPE svg PUBLIC "-//W3C//DTD SVG 20010904//EN"
 "http://www.w3.org/TR/2001/REC-SVG-20010904/DTD/svg10.dtd">
<svg version="1.0" xmlns="http://www.w3.org/2000/svg"
 width="576.000000pt" height="261.000000pt" viewBox="0 0 576.000000 261.000000"
 preserveAspectRatio="xMidYMid meet">

<g transform="translate(0.000000,261.000000) scale(0.100000,-0.100000)"
fill="#000000" stroke="none">
<path d="M2534 2493 c-9 -21 -31 -72 -49 -113 -18 -41 -56 -128 -84 -192 -255
-586 -342 -785 -363 -828 -21 -42 -26 -45 -68 -50 -25 -3 -44 -9 -42 -15 1 -6
64 -10 162 -10 100 0 160 4 160 10 0 6 -37 12 -82 15 l-83 5 -2 35 c-2 19 7
58 20 87 12 28 47 108 77 177 l54 126 216 0 216 0 64 -142 c35 -79 76 -170 92
-202 37 -78 36 -86 -7 -86 -25 0 -35 -4 -35 -15 0 -13 26 -15 200 -13 123 2
201 7 203 13 1 6 -9 12 -23 13 -36 5 -50 20 -77 82 -14 30 -61 135 -105 233
l-81 179 75 75 75 74 114 -141 c63 -78 180 -226 261 -329 149 -189 158 -196
226 -200 13 -1 22 5 22 14 0 10 -10 15 -33 15 -24 0 -41 9 -64 33 -29 31 -168
205 -303 379 -35 45 -95 121 -133 166 l-70 84 80 81 c43 45 161 166 261 269
100 103 182 192 182 198 0 16 -342 9 -348 -7 -3 -10 30 -13 143 -13 86 0 145
-4 143 -9 -1 -5 -43 -52 -93 -103 -49 -51 -189 -196 -309 -321 -120 -125 -224
-227 -231 -227 -12 0 -28 32 -145 290 -34 74 -69 151 -78 170 -9 19 -34 77
-57 129 -22 52 -46 96 -53 99 -7 2 -19 -13 -28 -35z m56 -95 c15 -35 65 -144
110 -243 101 -222 181 -396 227 -495 49 -104 153 -340 153 -345 0 -3 -38 -5
-83 -5 -91 0 -99 4 -127 65 -7 17 -50 111 -96 210 l-82 180 -221 5 -220 5 143
325 c78 179 145 333 149 343 3 9 9 17 12 17 3 0 19 -28 35 -62z"/>
<path d="M620 768 c-70 -189 -97 -250 -117 -265 -14 -11 -9 -13 32 -13 43 0
47 2 31 13 -18 13 -18 16 1 73 l20 59 72 3 72 3 15 -37 c27 -64 29 -101 8
-107 -11 -3 12 -5 50 -6 58 -1 67 1 54 12 -8 6 -50 98 -93 202 -42 105 -80
194 -84 198 -4 4 -32 -57 -61 -135z m73 -32 c15 -40 27 -76 27 -79 0 -4 -29
-7 -64 -7 l-65 0 24 70 c26 76 33 90 43 90 4 0 19 -33 35 -74z"/>
<path d="M2592 869 c-10 -24 -43 -109 -72 -189 -30 -80 -64 -155 -77 -167
l-22 -23 52 0 c49 0 50 1 30 15 l-22 15 21 61 20 60 72 -3 c70 -3 71 -3 88
-38 10 -20 20 -50 24 -67 5 -25 2 -32 -12 -36 -11 -3 13 -5 51 -6 48 0 65 3
54 9 -16 9 -31 43 -129 280 -29 69 -54 127 -56 129 -2 2 -12 -16 -22 -40z m68
-216 c0 -2 -29 -3 -65 -3 -36 0 -65 4 -65 10 0 11 46 135 56 152 5 8 74 -140
74 -159z"/>
<path d="M2900 903 c0 -5 7 -17 15 -27 12 -16 15 -55 15 -183 0 -150 -2 -165
-20 -183 l-20 -20 67 0 c60 0 65 1 48 14 -16 11 -20 30 -23 90 -3 49 0 81 7
90 8 10 9 16 1 21 -13 8 -14 182 -1 190 16 9 91 -7 113 -24 13 -11 22 -33 25
-63 5 -42 3 -50 -25 -78 -22 -21 -40 -30 -63 -30 -28 0 -30 -2 -17 -12 8 -7
43 -55 78 -105 l63 -93 46 0 c43 0 45 1 24 15 -25 17 -133 167 -133 184 0 6 6
11 14 11 8 0 28 13 45 29 59 55 33 148 -47 171 -43 11 -212 14 -212 3z"/>
<path d="M3415 891 c-115 -52 -157 -202 -90 -318 32 -53 81 -83 150 -90 150
-16 254 85 243 237 -5 74 -43 133 -107 167 -55 29 -138 31 -196 4z m165 -13
c122 -83 92 -354 -41 -383 -104 -23 -182 61 -182 195 0 118 67 210 153 210 22
0 51 -9 70 -22z"/>
<path d="M948 884 c21 -15 22 -21 22 -187 0 -95 -4 -177 -8 -183 -4 -6 -14
-14 -22 -17 -8 -3 12 -5 45 -5 33 0 53 2 45 5 -35 13 -40 34 -40 192 l1 156
22 -26 c12 -14 72 -94 132 -177 61 -83 113 -151 116 -152 3 0 8 86 11 192 5
169 8 193 24 205 16 11 12 13 -31 13 -45 0 -47 -1 -29 -14 17 -13 19 -30 22
-150 2 -75 0 -136 -5 -136 -4 0 -17 13 -28 29 -11 16 -60 84 -109 150 l-88
121 -51 0 c-49 0 -51 -1 -29 -16z"/>
<path d="M1521 883 c-5 -10 -25 -63 -44 -118 -61 -170 -94 -248 -113 -262 -16
-11 -12 -13 31 -13 45 0 47 1 29 14 -19 14 -19 15 2 73 l20 58 71 3 70 3 22
-50 c26 -60 27 -88 4 -94 -10 -3 13 -5 51 -6 58 -1 67 1 54 12 -9 6 -51 99
-94 205 -43 105 -81 192 -86 192 -4 0 -12 -8 -17 -17z m31 -146 c15 -39 28
-75 28 -79 0 -5 -29 -8 -64 -8 l-65 0 25 73 c34 101 34 101 41 93 4 -3 19 -39
35 -79z"/>
<path d="M1980 880 c18 -18 20 -33 20 -187 0 -93 -4 -173 -8 -179 -4 -6 -14
-14 -22 -17 -8 -3 17 -6 55 -6 52 0 66 2 53 10 -15 8 -18 24 -18 92 0 48 5 88
11 94 9 9 35 -16 101 -93 l90 -104 51 1 c39 0 47 2 31 9 -23 9 -214 222 -214
238 0 6 4 12 9 14 5 2 43 36 85 76 l76 72 -47 -1 c-27 0 -42 -3 -35 -6 27 -11
8 -41 -70 -115 l-83 -78 -3 86 c-2 55 1 91 9 100 10 12 2 14 -50 14 l-61 0 20
-20z"/>
<path d="M3823 889 c15 -9 17 -29 17 -195 0 -182 0 -185 -22 -194 -15 -6 30
-9 134 -9 l156 -1 4 53 c5 64 -6 81 -22 33 -18 -56 -51 -76 -126 -76 l-64 0 0
181 c0 105 4 188 10 200 10 18 7 19 -47 19 -44 -1 -54 -3 -40 -11z"/>
<path d="M4203 889 c15 -9 17 -29 17 -195 0 -182 0 -185 -22 -194 -17 -6 -3
-9 52 -9 70 -1 73 0 52 15 -21 15 -22 21 -22 189 0 144 3 176 16 189 14 15 10
16 -48 16 -48 -1 -59 -3 -45 -11z"/>
<path d="M4428 884 c21 -15 22 -21 22 -183 0 -170 -4 -191 -40 -204 -8 -3 11
-6 44 -6 57 -1 58 -1 37 17 -21 16 -22 24 -19 177 l3 159 129 -177 c71 -97
133 -177 138 -177 4 0 8 84 8 187 0 159 2 189 17 205 15 17 14 18 -28 18 -28
0 -39 -3 -31 -9 7 -4 18 -26 22 -47 12 -49 13 -244 2 -244 -5 0 -58 68 -118
150 l-109 150 -50 0 c-48 0 -49 -1 -27 -16z"/>
<path d="M4894 884 c13 -13 16 -44 16 -185 0 -156 -2 -171 -20 -189 l-20 -20
150 0 c112 0 152 3 154 13 10 31 15 97 8 97 -4 0 -14 -16 -21 -35 -16 -46 -55
-65 -131 -65 l-60 0 0 94 0 95 38 4 37 4 -37 1 -38 2 0 94 0 95 28 4 c15 2 -6
5 -46 6 -67 1 -72 0 -58 -15z"/>
<path d="M5065 895 c6 -2 23 -6 38 -9 21 -5 33 -18 47 -49 l20 -42 0 53 0 52
-57 -1 c-32 0 -53 -2 -48 -4z"/>
<path d="M5090 756 c0 -7 -9 -25 -21 -40 -17 -21 -18 -26 -5 -26 9 0 19 -14
25 -32 8 -28 9 -23 10 40 1 39 -1 72 -4 72 -3 0 -5 -6 -5 -14z"/>
<path d="M885 187 c-53 -128 -49 -117 -36 -117 5 0 11 9 14 20 4 15 14 20 42
20 28 0 38 -5 42 -20 3 -11 9 -20 14 -20 12 0 13 -2 -17 71 -34 85 -41 90 -59
46z m45 -54 c0 -7 -11 -13 -25 -13 -27 0 -31 10 -14 42 11 21 12 21 25 3 8
-10 14 -25 14 -32z"/>
<path d="M1042 143 c0 -43 3 -63 5 -45 6 42 36 44 58 2 9 -16 20 -30 26 -30 5
0 2 14 -8 30 -15 26 -15 32 -4 39 18 11 18 61 0 72 -8 5 -29 9 -46 9 l-33 0 2
-77z m68 52 c19 -23 4 -45 -30 -45 -25 0 -30 4 -30 23 0 13 3 27 7 30 11 12
40 8 53 -8z"/>
<path d="M1230 200 c-27 -27 -27 -83 0 -110 14 -14 33 -20 64 -20 41 0 44 2
50 31 15 77 -8 119 -64 119 -17 0 -39 -9 -50 -20z m78 -7 c19 -17 26 -38 23
-71 -1 -9 -8 -11 -22 -7 -18 6 -20 4 -14 -14 10 -31 -28 -28 -54 5 -27 34 -26
50 4 79 29 30 36 31 63 8z"/>
<path d="M1430 164 c0 -73 12 -94 53 -94 48 0 57 15 55 89 -1 51 -2 55 -5 21
-5 -70 -11 -88 -34 -95 -34 -11 -49 12 -49 76 0 33 -4 59 -10 59 -5 0 -10 -25
-10 -56z"/>
<path d="M1631 143 c1 -54 3 -70 9 -53 12 36 12 118 0 125 -6 4 -10 -22 -9
-72z"/>
<path d="M1740 211 c23 -6 25 -13 31 -76 l5 -70 2 68 c2 60 5 69 25 77 17 7 9
9 -33 8 -38 0 -47 -2 -30 -7z"/>
<path d="M1900 145 l0 -75 43 2 c36 1 38 2 10 5 -29 4 -33 8 -33 33 0 25 4 29
33 33 l32 4 -32 1 c-29 2 -33 5 -33 31 0 27 4 30 38 34 34 3 33 4 -10 5 l-48
2 0 -75z"/>
<path d="M2078 213 c20 -4 22 -10 22 -68 0 -35 5 -67 10 -70 6 -4 10 20 10 64
0 64 2 70 23 74 12 2 -3 4 -33 4 -30 0 -45 -2 -32 -4z"/>
<path d="M2241 167 c-1 -73 11 -97 49 -97 46 0 60 23 59 93 l-2 62 -7 -64 c-7
-59 -19 -81 -45 -81 -26 0 -38 22 -45 81 l-7 64 -2 -58z"/>
<path d="M2442 143 c0 -43 3 -63 5 -45 5 42 32 43 57 1 21 -36 32 -33 15 5
-10 20 -10 29 -1 38 15 15 15 51 0 66 -7 7 -27 12 -45 12 l-33 0 2 -77z m68
52 c19 -23 4 -45 -30 -45 -27 0 -30 3 -30 30 0 25 4 30 24 30 13 0 29 -7 36
-15z"/>
<path d="M2639 154 c-28 -62 -36 -115 -10 -66 17 31 76 32 84 0 4 -12 9 -19
13 -16 6 7 -45 148 -53 148 -2 0 -18 -30 -34 -66z m50 -4 c10 -29 9 -30 -19
-30 -28 0 -29 1 -19 30 6 17 15 30 19 30 4 0 13 -13 19 -30z"/>
<path d="M2934 205 c-4 -8 -4 -24 -1 -35 3 -10 -1 -24 -9 -31 -18 -15 -18 -43
0 -58 7 -6 33 -11 58 -10 43 2 44 3 45 36 1 29 -1 32 -11 18 -11 -15 -13 -15
-30 3 -14 17 -15 23 -5 40 7 11 9 27 6 36 -8 20 -46 21 -53 1z m39 -10 c7 -16
-8 -29 -23 -20 -10 6 -2 35 10 35 4 0 10 -7 13 -15z m1 -77 c19 -26 7 -43 -23
-33 -20 6 -28 34 -14 48 11 12 21 8 37 -15z"/>
<path d="M3233 145 c0 -44 2 -61 4 -37 2 23 2 59 0 80 -2 20 -4 1 -4 -43z"/>
<path d="M3329 219 c-8 -40 -8 -138 0 -144 7 -4 11 13 12 52 l0 58 27 -34 c15
-18 37 -45 49 -60 l22 -26 -1 80 c-2 68 -2 71 -5 23 -2 -32 -7 -58 -11 -58 -4
0 -20 20 -35 44 -25 40 -56 74 -58 65z"/>
<path d="M3540 211 c23 -6 25 -13 31 -76 l5 -70 2 72 c2 66 4 72 25 76 12 2
-3 4 -33 5 -37 0 -47 -2 -30 -7z"/>
<path d="M3704 206 c-3 -7 -4 -40 -2 -72 l3 -59 45 -2 c41 -1 42 -1 10 5 -29
6 -36 12 -38 34 -3 23 1 27 30 31 l33 4 -32 1 c-29 2 -33 5 -33 31 0 27 4 30
38 34 l37 4 -43 1 c-28 1 -44 -3 -48 -12z"/>
<path d="M3870 144 c0 -47 4 -73 10 -69 6 3 10 17 10 31 0 34 26 31 45 -6 9
-16 20 -30 26 -30 5 0 2 13 -7 29 -16 27 -16 30 -1 46 20 19 21 29 7 56 -8 14
-21 19 -50 19 l-40 0 0 -76z m68 57 c23 -14 10 -46 -21 -49 -24 -3 -27 0 -27
27 0 32 19 41 48 22z"/>
<path d="M4053 145 c0 -44 2 -61 4 -37 2 23 2 59 0 80 -2 20 -4 1 -4 -43z"/>
<path d="M4160 198 c-44 -48 -11 -128 54 -128 43 0 70 30 70 77 0 65 -80 98
-124 51z m90 -8 c11 -11 20 -31 20 -45 0 -29 -32 -65 -57 -65 -46 0 -71 74
-36 112 21 24 48 23 73 -2z"/>
<path d="M4367 213 c-11 -10 -8 -131 3 -138 6 -4 10 7 10 24 0 42 29 41 53 0
10 -18 20 -29 24 -26 3 4 -1 17 -10 31 -14 21 -14 26 -2 36 18 15 19 52 3 68
-13 13 -70 17 -81 5z m72 -21 c13 -24 2 -39 -29 -43 -22 -4 -25 0 -28 29 -3
28 0 32 22 32 14 0 30 -8 35 -18z"/>
<path d="M4544 206 c-3 -7 -4 -40 -2 -72 l3 -59 45 -2 c41 -1 42 -1 10 5 -29
6 -36 12 -38 34 -3 23 1 27 30 31 l33 4 -32 1 c-29 2 -33 5 -33 31 0 27 4 30
38 34 l37 4 -43 1 c-28 1 -44 -3 -48 -12z"/>
<path d="M4717 213 c-4 -3 -7 -17 -7 -29 0 -17 11 -29 40 -44 22 -11 40 -24
40 -29 0 -19 -29 -32 -57 -25 -21 5 -25 4 -17 -5 6 -7 27 -11 45 -9 28 2 35 7
37 30 3 22 -3 30 -30 44 -41 21 -50 34 -36 52 7 8 22 11 42 7 23 -5 27 -4 16
4 -17 12 -63 15 -73 4z"/>
</g>
</svg>
